<svg width="95" height="110" viewBox="0 0 95 110" fill="none" xmlns="http://www.w3.org/2000/svg">
    <path d="M47.5 107C73.4574 107 94.5 85.9574 94.5 60C94.5 34.0426 73.4574 13 47.5 13C21.5426 13 0.5 34.0426 0.5 60C0.5 85.9574 21.5426 107 47.5 107Z"
          fill="#EAECF0"/>
    <g filter="url(#filter0_d_44_6436)">
        <path d="M26.0073 89.6461H70.4387C73.3444 89.6461 75.6999 87.2906 75.6999 84.3849V27.4615L62.6846 13H26.0073C23.1016 13 20.7461 15.3555 20.7461 18.2612V84.3849C20.7461 87.2906 23.1016 89.6461 26.0073 89.6461Z"
              fill="url(#paint0_linear_44_6436)"/>
    </g>
    <path d="M47.5001 45.5083C51.5667 45.5083 54.8634 42.2116 54.8634 38.1449C54.8634 34.0783 51.5667 30.7816 47.5001 30.7816C43.4334 30.7816 40.1367 34.0783 40.1367 38.1449C40.1367 42.2116 43.4334 45.5083 47.5001 45.5083Z"
          fill="#D0D5DD"/>
    <path d="M62.2268 59.3145C62.2268 63.889 62.2268 67.5983 47.5001 67.5983C32.7734 67.5983 32.7734 63.889 32.7734 59.3145C32.7734 54.74 39.3673 51.0308 47.5001 51.0308C55.6329 51.0308 62.2268 54.74 62.2268 59.3145Z"
          fill="#D0D5DD"/>
    <g filter="url(#filter1_b_44_6436)">
        <rect x="30.8691" y="66.5074" width="33.2615" height="33.2615" rx="16.6308" fill="#CC4D4D"/>
        <path d="M55.3529 78.0846H39.7695" stroke="#FCFCFD" stroke-width="2" stroke-linecap="round"/>
        <path d="M53.8256 80.3762L53.404 86.7004C53.2418 89.1341 53.1607 90.3509 52.3677 91.0927C51.5748 91.8346 50.3553 91.8346 47.9162 91.8346H47.2073C44.7682 91.8346 43.5487 91.8346 42.7558 91.0927C41.9628 90.3509 41.8817 89.1341 41.7195 86.7004L41.2979 80.3762"
              stroke="#FCFCFD" stroke-width="2" stroke-linecap="round"/>
        <path d="M45.2695 82.668L45.7279 87.2513" stroke="#FBFCFF" stroke-width="1.5" stroke-linecap="round"/>
        <path d="M49.8529 82.668L49.3945 87.2513" stroke="#FBFCFF" stroke-width="1.5" stroke-linecap="round"/>
        <path d="M42.5195 78.0846C42.5708 78.0846 42.5964 78.0846 42.6196 78.084C43.3744 78.0649 44.0403 77.5849 44.2971 76.8749C44.305 76.853 44.3131 76.8287 44.3293 76.7802L44.4183 76.5132C44.4943 76.2853 44.5323 76.1713 44.5827 76.0745C44.7837 75.6885 45.1556 75.4204 45.5854 75.3518C45.6931 75.3346 45.8133 75.3346 46.0535 75.3346H49.0689C49.3091 75.3346 49.4292 75.3346 49.537 75.3518C49.9668 75.4204 50.3387 75.6885 50.5397 76.0745C50.5901 76.1713 50.6281 76.2852 50.7041 76.5132L50.7931 76.7802C50.8092 76.8287 50.8174 76.8531 50.8252 76.8749C51.0821 77.5849 51.748 78.0649 52.5028 78.084C52.526 78.0846 52.5516 78.0846 52.6029 78.0846"
              stroke="#FBFCFF" stroke-width="1.5"/>
    </g>
    <path d="M62.6846 13L75.7 27.4615H62.6846V13Z" fill="#D0D5DD"/>
    <defs>
        <filter id="filter0_d_44_6436" x="4.44609" y="0.700001" width="87.5541" height="109.246"
                filterUnits="userSpaceOnUse" color-interpolation-filters="sRGB">
            <feFlood flood-opacity="0" result="BackgroundImageFix"/>
            <feColorMatrix in="SourceAlpha" type="matrix" values="0 0 0 0 0 0 0 0 0 0 0 0 0 0 0 0 0 0 127 0"
                           result="hardAlpha"/>
            <feOffset dy="4"/>
            <feGaussianBlur stdDeviation="8.15"/>
            <feComposite in2="hardAlpha" operator="out"/>
            <feColorMatrix type="matrix" values="0 0 0 0 0 0 0 0 0 0 0 0 0 0 0 0 0 0 0.12 0"/>
            <feBlend mode="normal" in2="BackgroundImageFix" result="effect1_dropShadow_44_6436"/>
            <feBlend mode="normal" in="SourceGraphic" in2="effect1_dropShadow_44_6436" result="shape"/>
        </filter>
        <filter id="filter1_b_44_6436" x="22.8691" y="58.5074" width="49.2617" height="49.2616"
                filterUnits="userSpaceOnUse" color-interpolation-filters="sRGB">
            <feFlood flood-opacity="0" result="BackgroundImageFix"/>
            <feGaussianBlur in="BackgroundImageFix" stdDeviation="4"/>
            <feComposite in2="SourceAlpha" operator="in" result="effect1_backgroundBlur_44_6436"/>
            <feBlend mode="normal" in="SourceGraphic" in2="effect1_backgroundBlur_44_6436" result="shape"/>
        </filter>
        <linearGradient id="paint0_linear_44_6436" x1="22.6599" y1="88.7389" x2="17.7199" y2="18.868"
                        gradientUnits="userSpaceOnUse">
            <stop stop-color="#E4E7EC"/>
            <stop offset="1" stop-color="#F9FAFB"/>
        </linearGradient>
    </defs>
</svg>
