<svg width="71" height="87" viewBox="0 0 71 87" fill="none" xmlns="http://www.w3.org/2000/svg">
    <path d="M35 78C52.9493 78 67.5 63.4493 67.5 45.5C67.5 27.5507 52.9493 13 35 13C17.0507 13 2.5 27.5507 2.5 45.5C2.5 63.4493 17.0507 78 35 78Z"
          fill="#EAECF0"/>
    <g filter="url(#filter0_d_609_380)">
        <path d="M21.7612 66H49.2388C52.1445 66 54.5 63.6445 54.5 60.7388V23L45.5 13H21.7612C18.8555 13 16.5 15.3555 16.5 18.2612V60.7388C16.5 63.6445 18.8555 66 21.7612 66Z"
              fill="url(#paint0_linear_609_380)"/>
    </g>
    <ellipse cx="2.90529" cy="2.90678" rx="2.90529" ry="2.90678" transform="matrix(1 0 0.000108913 1 25.7061 29)"
             fill="#D0D5DD"/>
    <path fill-rule="evenodd" clip-rule="evenodd"
          d="M22.7482 44.8823L27.0897 41.2374C27.8445 40.6037 28.9485 40.6144 29.691 41.2627L32.4279 43.6522C33.2208 44.3445 34.4146 44.3038 35.1583 43.5591L40.8638 37.8466C41.7044 37.005 43.0894 37.0788 43.836 38.0049L49.3801 44.8823L49.804 45.4465C50.056 45.7817 50.1961 46.1877 50.2048 46.607L50.2407 48.3558C50.2638 49.4808 49.3546 50.4033 48.2294 50.3966L23.5217 50.25C22.4319 50.2435 21.5477 49.3656 21.5336 48.2758L21.5146 46.8191C21.5061 46.1647 21.8184 45.5475 22.3506 45.1667L22.7482 44.8823Z"
          fill="#D0D5DD"/>
    <g filter="url(#filter1_b_609_380)">
        <rect x="23.5" y="50" width="23" height="23" rx="11.5" fill="url(#paint1_linear_609_380)"/>
        <path d="M29.375 63.375C29.375 65.1428 29.375 66.0267 29.9242 66.5758C30.4733 67.125 31.3572 67.125 33.125 67.125H36.875C38.6428 67.125 39.5267 67.125 40.0758 66.5758C40.625 66.0267 40.625 65.1428 40.625 63.375"
              stroke="#FCFCFD" stroke-width="1.5" stroke-linecap="round" stroke-linejoin="round"/>
        <path d="M35 55.875V64M35 64L37.5 61.2656M35 64L32.5 61.2656" stroke="#FCFCFD" stroke-width="1.5"
              stroke-linecap="round" stroke-linejoin="round"/>
    </g>
    <path d="M45.5 13L54.5 23H45.5V13Z" fill="#D0D5DD"/>
    <defs>
        <filter id="filter0_d_609_380" x="0.200001" y="0.700001" width="70.6" height="85.6" filterUnits="userSpaceOnUse"
                color-interpolation-filters="sRGB">
            <feFlood flood-opacity="0" result="BackgroundImageFix"/>
            <feColorMatrix in="SourceAlpha" type="matrix" values="0 0 0 0 0 0 0 0 0 0 0 0 0 0 0 0 0 0 127 0"
                           result="hardAlpha"/>
            <feOffset dy="4"/>
            <feGaussianBlur stdDeviation="8.15"/>
            <feComposite in2="hardAlpha" operator="out"/>
            <feColorMatrix type="matrix" values="0 0 0 0 0 0 0 0 0 0 0 0 0 0 0 0 0 0 0.12 0"/>
            <feBlend mode="normal" in2="BackgroundImageFix" result="effect1_dropShadow_609_380"/>
            <feBlend mode="normal" in="SourceGraphic" in2="effect1_dropShadow_609_380" result="shape"/>
        </filter>
        <filter id="filter1_b_609_380" x="15.5" y="42" width="39" height="39" filterUnits="userSpaceOnUse"
                color-interpolation-filters="sRGB">
            <feFlood flood-opacity="0" result="BackgroundImageFix"/>
            <feGaussianBlur in="BackgroundImageFix" stdDeviation="4"/>
            <feComposite in2="SourceAlpha" operator="in" result="effect1_backgroundBlur_609_380"/>
            <feBlend mode="normal" in="SourceGraphic" in2="effect1_backgroundBlur_609_380" result="shape"/>
        </filter>
        <linearGradient id="paint0_linear_609_380" x1="17.8233" y1="65.3726" x2="14.4074" y2="17.0576"
                        gradientUnits="userSpaceOnUse">
            <stop stop-color="#E4E7EC"/>
            <stop offset="1" stop-color="#F9FAFB"/>
        </linearGradient>
        <linearGradient id="paint1_linear_609_380" x1="22" y1="42" x2="35" y2="73" gradientUnits="userSpaceOnUse">
            <stop stop-color="#235EBD"/>
            <stop offset="1" stop-color="#2C71DE"/>
        </linearGradient>
    </defs>
</svg>
