<svg width="90" height="86" viewBox="0 0 90 86" fill="none" xmlns="http://www.w3.org/2000/svg">
<path fill-rule="evenodd" clip-rule="evenodd" d="M51.5345 72.463H11.8553C9.06244 72.463 6.77637 69.992 6.77637 66.972V5.98978C6.77637 2.96979 9.06244 0.5 11.8553 0.5H51.5345C54.3284 0.5 56.6145 2.96979 56.6145 5.98978V66.972C56.6145 69.992 54.3284 72.463 51.5345 72.463Z" fill="#C3C6D6"/>
<path fill-rule="evenodd" clip-rule="evenodd" d="M48.1448 75.0695H8.4656C5.67279 75.0695 3.38672 72.5985 3.38672 69.5785V8.59623C3.38672 5.57623 5.67279 3.10645 8.4656 3.10645H48.1448C50.9388 3.10645 53.2249 5.57623 53.2249 8.59623V69.5785C53.2249 72.5985 50.9388 75.0695 48.1448 75.0695Z" fill="#E8EBF2"/>
<path fill-rule="evenodd" clip-rule="evenodd" d="M44.8506 77.1275H5.08938C2.29079 77.1275 0 74.6667 0 71.6592V10.9295C0 7.92196 2.29079 5.4624 5.08938 5.4624H44.8506C47.6504 5.4624 49.9411 7.92196 49.9411 10.9295V71.6592C49.9411 74.6667 47.6504 77.1275 44.8506 77.1275Z" fill="#D8DBEA"/>
<path fill-rule="evenodd" clip-rule="evenodd" d="M44.8506 77.1275H5.08938C2.29079 77.1275 0 74.6667 0 71.6592V10.9295C0 7.92196 2.29079 5.4624 5.08938 5.4624H44.8506C47.6504 5.4624 49.9411 7.92196 49.9411 10.9295V71.6592C49.9411 74.6667 47.6504 77.1275 44.8506 77.1275Z" fill="#E2E3EB"/>
<path fill-rule="evenodd" clip-rule="evenodd" d="M39.1184 23.9657H9.74985C8.91114 23.9657 8.22461 23.2618 8.22461 22.4019C8.22461 21.5408 8.91114 20.8369 9.74985 20.8369H39.1184C39.9571 20.8369 40.6436 21.5408 40.6436 22.4019C40.6436 23.2618 39.9571 23.9657 39.1184 23.9657Z" fill="#C3C6D6"/>
<path fill-rule="evenodd" clip-rule="evenodd" d="M39.1184 33.3529H9.74985C8.91114 33.3529 8.22461 32.6491 8.22461 31.7891C8.22461 30.928 8.91114 30.2241 9.74985 30.2241H39.1184C39.9571 30.2241 40.6436 30.928 40.6436 31.7891C40.6436 32.6491 39.9571 33.3529 39.1184 33.3529Z" fill="#C3C6D6"/>
<path fill-rule="evenodd" clip-rule="evenodd" d="M39.1184 42.7397H9.74985C8.91114 42.7397 8.22461 42.0358 8.22461 41.1758C8.22461 40.3159 8.91114 39.6108 9.74985 39.6108H39.1184C39.9571 39.6108 40.6436 40.3159 40.6436 41.1758C40.6436 42.0358 39.9571 42.7397 39.1184 42.7397Z" fill="#C3C6D6"/>
<path fill-rule="evenodd" clip-rule="evenodd" d="M39.1184 52.1259H9.74985C8.91114 52.1259 8.22461 51.422 8.22461 50.5621C8.22461 49.701 8.91114 48.9971 9.74985 48.9971H39.1184C39.9571 48.9971 40.6436 49.701 40.6436 50.5621C40.6436 51.422 39.9571 52.1259 39.1184 52.1259Z" fill="#C3C6D6"/>
<path fill-rule="evenodd" clip-rule="evenodd" d="M25.0797 61.5116H9.75637C8.91407 61.5116 8.22461 60.8077 8.22461 59.9478C8.22461 59.0867 8.91407 58.3828 9.75637 58.3828H25.0797C25.922 58.3828 26.6115 59.0867 26.6115 59.9478C26.6115 60.8077 25.922 61.5116 25.0797 61.5116Z" fill="#C3C6D6"/>
<path fill-rule="evenodd" clip-rule="evenodd" d="M56.011 49.381C50.1385 55.7089 41.0471 56.4227 34.4468 51.5372C33.6033 50.9016 32.8004 50.1877 32.0517 49.381C31.6663 48.967 31.303 48.5398 30.9607 48.0899C30.2761 47.1916 29.6764 46.2336 29.185 45.2438C28.3194 43.5719 27.7308 41.7979 27.4094 39.9642C26.3725 34.2135 27.9229 28.0236 32.0517 23.5759C36.1905 19.115 41.9349 17.4551 47.2718 18.5617C48.9723 18.9186 50.62 19.5529 52.1715 20.475C53.0914 21.0164 53.9681 21.6626 54.803 22.4003C55.2192 22.7679 55.6157 23.1606 55.9999 23.5759C56.7498 24.3827 57.4222 25.2465 58.0009 26.1567C62.5362 33.2674 61.8725 43.0651 56.011 49.381Z" fill="white" fill-opacity="0.1"/>
<path fill-rule="evenodd" clip-rule="evenodd" d="M54.3644 48.1344C48.2548 54.72 38.3538 54.7188 32.2431 48.1344C26.1403 41.5573 26.1403 30.8856 32.251 24.3011C38.3538 17.7241 48.2548 17.7241 54.3576 24.3011C60.4671 30.8856 60.4671 41.5573 54.3644 48.1344ZM57.5011 20.9188C49.659 12.4672 36.951 12.4672 29.1088 20.9188C21.2678 29.3693 21.2609 43.0735 29.102 51.5252C36.2393 59.2148 47.4261 59.9082 55.2944 53.5946C56.063 52.9771 56.8031 52.2848 57.5091 51.5252C58.2139 50.7643 58.8563 49.9667 59.4281 49.1384C65.2864 40.6574 64.6373 28.6096 57.5011 20.9188Z" fill="#C3C6D6"/>
<path fill-rule="evenodd" clip-rule="evenodd" d="M88.3652 83.3839L88.036 83.7387C85.8578 86.0873 82.291 86.0873 80.1118 83.7387L60 62.0638L68.2534 53.1689L88.3652 74.8438C90.5445 77.1924 90.5445 81.0352 88.3652 83.3839Z" fill="url(#paint0_linear_683_24230)"/>
<path fill-rule="evenodd" clip-rule="evenodd" d="M59.8606 48.4751L65.8038 54.8801L61.5845 59.426L55.6426 53.021C56.4268 52.3909 57.1808 51.6845 57.9024 50.9093C58.6217 50.1342 59.2771 49.3203 59.8606 48.4751Z" fill="#C3C6D6"/>
<path fill-rule="evenodd" clip-rule="evenodd" d="M88.064 74.5772L79.8631 83.4143L78.3867 81.8219L86.5865 72.9849L88.064 74.5772Z" fill="#CC4D4D"/>
<path fill-rule="evenodd" clip-rule="evenodd" d="M68.7105 53.4744L60.285 62.5549L59.0332 61.206L67.4587 52.1255L68.7105 53.4744Z" fill="#CC4D4D"/>
<path fill-rule="evenodd" clip-rule="evenodd" d="M50.3213 22.0365L29.6585 44.3041C28.8804 42.8011 28.3513 41.2062 28.0635 39.5576L45.9169 20.3164C47.4455 20.6385 48.9266 21.2075 50.3213 22.0365Z" fill="white" fill-opacity="0.5"/>
<path fill-rule="evenodd" clip-rule="evenodd" d="M57.096 27.3294L34.7574 50.0404C33.9574 49.4728 33.1959 48.834 32.4859 48.1121C32.1204 47.7404 31.7747 47.3593 31.4512 46.9568L54.062 23.9668C54.4579 24.2969 54.8339 24.6484 55.1983 25.02C55.9083 25.7419 56.5471 26.5149 57.096 27.3294Z" fill="white" fill-opacity="0.5"/>
<defs>
<linearGradient id="paint0_linear_683_24230" x1="74.9998" y1="37.0033" x2="42.759" y2="66.9191" gradientUnits="userSpaceOnUse">
<stop stop-color="#FF8960"/>
<stop offset="1" stop-color="#FF62A5"/>
</linearGradient>
</defs>
</svg>
